# xmcd CD database file
#
# Track frame offsets:
#	150
#	17448
#	39270
#	57710
#	76129
#	99360
#	114836
#	132030
#	150603
#	166711
#	185472
#	217263
#	242797
#
# Disc length: 3442 seconds
#
# Revision: 0
# Processed by: cddbd v1.5.2PL0 Copyright (c) Steve Scherf et al.
# Submitted via: CDex 1.51
#
DISCID=9b0d700d
DTITLE=Steve Freund - Lonesome Flight
DYEAR=2010
DGENRE=Blues
TTITLE0=Hey Big Bill
TTITLE1=Lonesome Flight
TTITLE2=Boogie In The Rain
TTITLE3=LaMoor Is Blue
TTITLE4=Wind Is In My Face
TTITLE5=Guitar Doctor
TTITLE6=Still Pickin`
TTITLE7=Tough Times
TTITLE8=100 Tompkins Ave.
TTITLE9=On Highway 101
TTITLE10=Let Me Down Easy
TTITLE11=Keep On Drinking
TTITLE12=Jesse James
EXTD=YEAR: 2010
EXTT0=
EXTT1=
EXTT2=
EXTT3=
EXTT4=
EXTT5=
EXTT6=
EXTT7=
EXTT8=
EXTT9=
EXTT10=
EXTT11=
EXTT12=
PLAYORDER=
